{"title":"Freaks of Nature (2015) BRRIP 1080P NO CINAVIA","uid":13378967,"size":1934944364,"categoryP":"video","categoryS":"hd___movies","magnet":"?xt=urn:btih:8232cf999b1b5c60c54c929f9a99f477baea4684&amp;dn=Freaks+of+Nature+%282015%29+BRRIP+1080P+NO+CINAVIA&amp;tr=udp%3A%2F%2Ftracker.leechers-paradise.org%3A6969&amp;tr=udp%3A%2F%2Fzer0day.ch%3A1337&amp;tr=udp%3A%2F%2Fopen.demonii.com%3A1337&amp;tr=udp%3A%2F%2Ftracker.coppersurfer.tk%3A6969&amp;tr=udp%3A%2F%2Fexodus.desync.com%3A6969","seeders":0,"leechers":0,"uploader":"jmanwf","files":3,"time":1454250888,"description":"In the town of Dillford, humans, vampires and zombies were all living in peace - until the alien apocalypse arrived. Now three teenagers-one human, one vampire, and one zombie-have to team up to figure out how to get rid of the visitors.\r\n\r\n\r\n\r\nVideo\r\nID : 1\r\nFormat : AVC\r\nFormat/Info : Advanced Video Codec\r\nFormat profile :   \r\nFormat settings, CABAC : Yes\r\nFormat settings, ReFrames : 4 frames\r\nCodec ID : avc1\r\nCodec ID/Info : Advanced Video Coding\r\nDuration : 1h 32mn\r\nBit rate : 2 500 Kbps\r\nWidth : 1 920 pixels\r\nHeight : 808 pixels\r\nDisplay aspect ratio : 2.40:1\r\nFrame rate mode : Constant\r\nFrame rate : 23.976 fps\r\nColor space : YUV\r\nChroma subsampling : 4:2:0\r\nBit depth : 8 bits\r\nScan type : Progressive\r\nBits/(Pixel*Frame) : 0.067\r\nStream size : 1.62 GiB (92%)\r\nWriting library : x264 core 148 r2597M e86f3a1\r\n\r\n\r\nAudio\r\nID : 2\r\nFormat : AAC\r\nFormat/Info : Advanced Audio Codec\r\nFormat profile : LC\r\nCodec ID : 40\r\nDuration : 1h 32mn\r\nBit rate mode : Variable\r\nBit rate : 224 Kbps\r\nMaximum bit rate : 896 Kbps\r\nChannel(s) : 2 channels\r\nChannel(s)_Original : 6 channels\r\nChannel positions : Front: L C R, Side: L R, LFE\r\nSampling rate : 48.0 KHz\r\nCompression mode : Lossy\r\nStream size : 148 MiB (8%)\r\nLanguage : English\r\nEncoded date : UTC 2016-01-27 00:56:50\r\nTagged date : UTC 2016-01-27 00:56:50\r\n\r\n \nhttp://s27.postimg.org/9vzlqm6eb/image.jpg\r\n\r\n\r\n \nhttp://s27.postimg.org/4ym15i4f7/image.jpg","torrent":{"xt":"urn:btih:8232cf999b1b5c60c54c929f9a99f477baea4684","amp;dn":"Freaks+of+Nature+%282015%29+BRRIP+1080P+NO+CINAVIA","amp;tr":["udp%3A%2F%2Ftracker.leechers-paradise.org%3A6969","udp%3A%2F%2Fzer0day.ch%3A1337","udp%3A%2F%2Fopen.demonii.com%3A1337","udp%3A%2F%2Ftracker.coppersurfer.tk%3A6969","udp%3A%2F%2Fexodus.desync.com%3A6969"],"infoHash":"8232cf999b1b5c60c54c929f9a99f477baea4684","infoHashBuffer":{"type":"Buffer","data":[130,50,207,153,155,27,92,96,197,76,146,159,154,153,244,119,186,234,70,132]},"announce":[],"urlList":[]}}